<svg width="32" height="32" viewBox="0 0 32 32" fill="none" xmlns="http://www.w3.org/2000/svg">
<path d="M19.4002 30.1005L19.6639 31.353L27.1794 29.7716L26.9157 28.5191L23.7848 29.1776L22.5893 23.497C23.6498 23.129 24.5477 22.4218 25.1551 21.4535C25.877 20.3021 26.0946 18.9415 25.7676 17.6218L22.3807 3.96675L14.8396 5.55331L15.1295 3.88227L6.40565 2.04675L3.01877 15.7018C2.69173 17.0215 2.90933 18.3821 3.63125 19.5335C4.23861 20.5018 5.13653 21.209 6.19701 21.577L5.00149 27.2576L1.87061 26.5991L1.60693 27.8516L9.12245 29.433L9.38613 28.1805L6.25461 27.5213L7.45013 21.8407C7.58325 21.8516 7.71701 21.8618 7.84949 21.8618C8.83061 21.8618 9.78869 21.5693 10.622 21.0042C11.7471 20.2413 12.4946 19.0842 12.7269 17.7447L14.2277 9.08868L16.062 19.6647C16.2943 21.0042 17.0418 22.1613 18.1669 22.9242C19.0002 23.4893 19.9576 23.7818 20.9394 23.7818C21.0719 23.7818 21.2056 23.7716 21.3388 23.7607L22.5343 29.4413L19.4002 30.1005ZM7.35029 3.55395L13.6568 4.88067L12.5989 10.9812L12.1324 10.5146C11.2671 9.64868 9.97365 9.38244 8.83509 9.83812C8.09077 10.1364 7.23509 9.89572 6.75381 9.2538L6.14005 8.43524L7.35029 3.55395ZM9.90197 19.945C9.06805 20.5114 8.06389 20.7085 7.07701 20.5012C6.09013 20.2932 5.25109 19.7082 4.71541 18.8538C4.17973 17.9994 4.01845 16.9895 4.26101 16.0103L5.74261 10.0372C6.57205 11.129 8.03637 11.538 9.31125 11.0266C9.97109 10.7616 10.7244 10.9165 11.2281 11.4202L12.332 12.5242L11.4648 17.5264C11.292 18.5204 10.7372 19.3792 9.90197 19.945ZM21.4354 5.47395L22.5669 10.0365L21.4655 10.8628C21.0085 11.2052 20.4082 11.2596 19.8968 11.0042C18.8261 10.4692 17.5378 10.6778 16.6904 11.5245L16.0575 12.1575L15.1288 6.80131L21.4354 5.47395ZM18.8837 21.865C18.0485 21.2992 17.4943 20.4397 17.3221 19.4458L16.3256 13.6992L17.596 12.4288C18.053 11.9719 18.748 11.8586 19.3253 12.1485C20.2732 12.6221 21.3868 12.5223 22.2341 11.8861L22.9016 11.3856L24.5247 17.9309C24.7672 18.9101 24.606 19.9194 24.0703 20.7744C23.5346 21.6288 22.6956 22.2138 21.7087 22.4218C20.7224 22.6285 19.7183 22.432 18.8837 21.865Z" fill="black"/>
<path d="M30.3927 4.4871V3.2071C28.9808 3.2071 27.8327 2.05894 27.8327 0.647095H26.5527C26.5527 2.05894 25.4045 3.2071 23.9927 3.2071V4.4871C25.4045 4.4871 26.5527 5.63526 26.5527 7.0471H27.8327C27.8327 5.63526 28.9808 4.4871 30.3927 4.4871ZM27.1927 4.92678C26.9085 4.49926 26.5405 4.1319 26.113 3.8471C26.5405 3.56294 26.9079 3.19494 27.1927 2.76742C27.4768 3.19494 27.8448 3.5623 28.2724 3.8471C27.8448 4.13126 27.4768 4.49926 27.1927 4.92678Z" fill="black"/>
<path d="M11.8329 22.4071C11.8329 23.8189 10.6848 24.9671 9.27295 24.9671V26.2471C10.6848 26.2471 11.8329 27.3953 11.8329 28.8071H13.1129C13.1129 27.3953 14.2611 26.2471 15.6729 26.2471V24.9671C14.2611 24.9671 13.1129 23.8189 13.1129 22.4071H11.8329ZM12.4729 26.6868C12.1888 26.2593 11.8208 25.8919 11.3933 25.6071C11.8208 25.323 12.1881 24.955 12.4729 24.5274C12.7571 24.955 13.1251 25.3223 13.5526 25.6071C13.1251 25.8913 12.7571 26.2593 12.4729 26.6868Z" fill="black"/>
<path d="M22.073 18.5671H20.793V19.8471H22.073V18.5671Z" fill="black"/>
<path d="M19.5129 16.0071H18.2329V17.2871H19.5129V16.0071Z" fill="black"/>
<path d="M22.073 14.087H20.793V15.367H22.073V14.087Z" fill="black"/>
<path d="M7.35275 16.6471H6.07275V17.9271H7.35275V16.6471Z" fill="black"/>
<path d="M10.5529 13.4471H9.27295V14.7271H10.5529V13.4471Z" fill="black"/>
</svg>
