<svg width="32" height="32" viewBox="0 0 32 32" fill="none" xmlns="http://www.w3.org/2000/svg">
<path d="M27 23H5C3.9 23 3 22.1 3 21V17C3 14.8 4.8 13 7 13H25C27.2 13 29 14.8 29 17V21C29 22.1 28.1 23 27 23Z" stroke="black" stroke-width="2" stroke-miterlimit="10" stroke-linecap="round" stroke-linejoin="round"/>
<path d="M26 13H6L8 8.4C8.6 7 10 6 11.6 6H20.3C21.9 6 23.3 7 24 8.4L26 13Z" stroke="black" stroke-width="2" stroke-miterlimit="10" stroke-linecap="round" stroke-linejoin="round"/>
<path d="M10 23H4V25C4 26.1 4.9 27 6 27H8C9.1 27 10 26.1 10 25V23Z" stroke="black" stroke-width="2" stroke-miterlimit="10" stroke-linecap="round" stroke-linejoin="round"/>
<path d="M28 23H22V25C22 26.1 22.9 27 24 27H26C27.1 27 28 26.1 28 25V23Z" stroke="black" stroke-width="2" stroke-miterlimit="10" stroke-linecap="round" stroke-linejoin="round"/>
<path d="M3 12H6.4" stroke="black" stroke-width="2" stroke-miterlimit="10" stroke-linecap="round" stroke-linejoin="round"/>
<path d="M26 12H29" stroke="black" stroke-width="2" stroke-miterlimit="10" stroke-linecap="round" stroke-linejoin="round"/>
<path d="M21 23H11L12.4 20.1C12.7 19.4 13.4 19 14.2 19H17.7C18.5 19 19.2 19.4 19.5 20.1L21 23Z" stroke="black" stroke-width="2" stroke-miterlimit="10" stroke-linecap="round" stroke-linejoin="round"/>
<path d="M6 18H9" stroke="black" stroke-width="2" stroke-miterlimit="10" stroke-linecap="round" stroke-linejoin="round"/>
<path d="M23 18H26" stroke="black" stroke-width="2" stroke-miterlimit="10" stroke-linecap="round" stroke-linejoin="round"/>
</svg>
