<svg width="32" height="32" viewBox="0 0 32 32" fill="none" xmlns="http://www.w3.org/2000/svg">
<path d="M24 19H15.5C15.3674 19 15.2402 19.0527 15.1465 19.1465C15.0527 19.2402 15 19.3674 15 19.5V27C15 27.1326 15.0527 27.2598 15.1465 27.3535C15.2402 27.4473 15.3674 27.5 15.5 27.5H24C24.1326 27.5 24.2598 27.4473 24.3535 27.3535C24.4473 27.2598 24.5 27.1326 24.5 27V19.5C24.5 19.3674 24.4473 19.2402 24.3535 19.1465C24.2598 19.0527 24.1326 19 24 19ZM23.5 26.5H16V20H23.5V26.5Z" fill="black"/>
<path d="M30 28.5H26.5V17.955C27.1985 17.837 27.8328 17.4755 28.2903 16.9346C28.7479 16.3938 28.9993 15.7085 29 15V13C29.0023 12.9684 29.0023 12.9366 29 12.905C29.0047 12.8869 29.0047 12.8681 29 12.85L26.5 4.85C26.467 4.74464 26.4001 4.65317 26.3096 4.58986C26.2192 4.52655 26.1103 4.49495 26 4.5H20.5V3C20.5 2.86739 20.4473 2.74022 20.3535 2.64645C20.2598 2.55268 20.1326 2.5 20 2.5H12C11.8674 2.5 11.7402 2.55268 11.6465 2.64645C11.5527 2.74022 11.5 2.86739 11.5 3V4.5H6C5.89395 4.50042 5.79075 4.53455 5.70535 4.59747C5.62 4.66038 5.5568 4.74882 5.525 4.85L3.025 12.85C3.02035 12.8681 3.02035 12.8869 3.025 12.905C3.01427 12.936 3.00591 12.9677 3 13V15C3.00072 15.7085 3.25213 16.3938 3.7097 16.9346C4.16726 17.4755 4.80147 17.837 5.5 17.955V28.5H2C1.86739 28.5 1.74022 28.5527 1.64645 28.6465C1.55268 28.7402 1.5 28.8674 1.5 29C1.5 29.1326 1.55268 29.2598 1.64645 29.3535C1.74022 29.4473 1.86739 29.5 2 29.5H30C30.1326 29.5 30.2598 29.4473 30.3535 29.3535C30.4473 29.2598 30.5 29.1326 30.5 29C30.5 28.8674 30.4473 28.7402 30.3535 28.6465C30.2598 28.5527 30.1326 28.5 30 28.5ZM26 17C25.5569 16.9997 25.1264 16.8522 24.7761 16.5807C24.4259 16.3092 24.1758 15.9291 24.065 15.5H27.935C27.8242 15.9291 27.5741 16.3092 27.2239 16.5807C26.8736 16.8522 26.4431 16.9997 26 17ZM18.5 14.5H4V13.5H28V14.5H18.5ZM22.935 15.5C22.8231 15.928 22.5725 16.3068 22.2224 16.5772C21.8723 16.8476 21.4424 16.9942 21 16.9942C20.5576 16.9942 20.1277 16.8476 19.7776 16.5772C19.4275 16.3068 19.1769 15.928 19.065 15.5H22.935ZM17.935 15.5C17.8198 15.9237 17.5685 16.2977 17.2197 16.5644C16.8709 16.831 16.444 16.9755 16.005 16.9755C15.5659 16.9755 15.1391 16.831 14.7903 16.5644C14.4415 16.2977 14.1902 15.9237 14.075 15.5H17.935ZM12.935 15.5C12.8198 15.9237 12.5685 16.2977 12.2197 16.5644C11.8709 16.831 11.444 16.9755 11.005 16.9755C10.566 16.9755 10.1391 16.831 9.7903 16.5644C9.4415 16.2977 9.19015 15.9237 9.075 15.5H12.935ZM12.5 3.5H19.5V6.5H12.5V3.5ZM6.37 5.5H11.5V7C11.5 7.1326 11.5527 7.2598 11.6465 7.35355C11.7402 7.4473 11.8674 7.5 12 7.5H20C20.1326 7.5 20.2598 7.4473 20.3535 7.35355C20.4473 7.2598 20.5 7.1326 20.5 7V5.5H25.63L27.82 12.5H4.18L6.37 5.5ZM4.07 15.5H7.93C7.81485 15.9237 7.5635 16.2977 7.2147 16.5644C6.8659 16.831 6.43905 16.9755 6 16.9755C5.56095 16.9755 5.1341 16.831 4.7853 16.5644C4.4365 16.2977 4.18514 15.9237 4.07 15.5ZM8.5 28.5V20H13V28.5H8.5ZM14 28.5V19.5C14 19.3674 13.9473 19.2402 13.8535 19.1465C13.7598 19.0527 13.6326 19 13.5 19H8C7.8674 19 7.7402 19.0527 7.64645 19.1465C7.5527 19.2402 7.5 19.3674 7.5 19.5V28.5H6.5V17.955C6.90455 17.8866 7.29075 17.736 7.63475 17.5124C7.97875 17.2887 8.27325 16.997 8.5 16.655C8.77365 17.0676 9.14515 17.406 9.58135 17.6401C10.0176 17.8742 10.5049 17.9967 11 17.9967C11.4951 17.9967 11.9824 17.8742 12.4186 17.6401C12.8548 17.406 13.2263 17.0676 13.5 16.655C13.7737 17.0676 14.1452 17.406 14.5814 17.6401C15.0176 17.8742 15.5049 17.9967 16 17.9967C16.4951 17.9967 16.9824 17.8742 17.4186 17.6401C17.8548 17.406 18.2264 17.0676 18.5 16.655C18.7736 17.0676 19.1452 17.406 19.5814 17.6401C20.0175 17.8742 20.5049 17.9967 21 17.9967C21.4951 17.9967 21.9825 17.8742 22.4186 17.6401C22.8548 17.406 23.2264 17.0676 23.5 16.655C23.7267 16.997 24.0212 17.2887 24.3652 17.5124C24.7092 17.736 25.0954 17.8866 25.5 17.955V28.5H14Z" fill="black"/>
</svg>
