<svg width="32" height="32" viewBox="0 0 32 32" fill="none" xmlns="http://www.w3.org/2000/svg">
<path fill-rule="evenodd" clip-rule="evenodd" d="M28.1772 20.3507H27.4712H27.4683H26.3524L24.2978 15.5107C23.7976 14.3327 22.6475 13.5714 21.3676 13.5714H13.0501C11.7702 13.5714 10.6201 14.3327 10.1199 15.5107L8.06525 20.3507H7.19781C6.73781 20.3507 6.29656 20.4325 5.88775 20.5821V11.9375H9.75C10.5771 11.9375 11.25 11.2646 11.25 10.4375V3.1875C11.25 2.36044 10.5771 1.6875 9.75 1.6875H1.5C0.672938 1.6875 0 2.36044 0 3.1875V10.4375C0 11.2646 0.672938 11.9375 1.5 11.9375H4.63769V21.3373C3.86281 22.0374 3.375 23.0495 3.375 24.1736V27.8191C3.375 27.985 3.441 28.1441 3.55844 28.2614C3.67562 28.3784 3.83444 28.4441 4 28.4441H4.001L4.63775 28.4431V29.0625H0.625C0.279875 29.0625 0 29.3423 0 29.6875C0 30.0327 0.279875 30.3125 0.625 30.3125H12.9366C13.2817 30.3125 13.5616 30.0327 13.5616 29.6875C13.5616 29.3423 13.2817 29.0625 12.9366 29.0625H12.1141C12.2261 28.8691 12.3136 28.6599 12.3708 28.4384H17.1293C17.1554 28.4417 17.1819 28.4441 17.2089 28.4441C17.2359 28.4441 17.2623 28.4417 17.2884 28.4384H23.9016C23.9589 28.6599 24.0463 28.8692 24.1583 29.0625H19.6875C19.3424 29.0625 19.0625 29.3423 19.0625 29.6875C19.0625 30.0327 19.3424 30.3125 19.6875 30.3125H29.5189C29.8641 30.3125 30.1439 30.0327 30.1439 29.6875C30.1439 29.3423 29.8641 29.0625 29.5189 29.0625H28.4867C28.5986 28.8693 28.686 28.6602 28.7432 28.4391L31.3738 28.4441H31.375C31.5405 28.4441 31.6993 28.3784 31.8165 28.2614C31.9339 28.1442 32 27.9851 32 27.8191V24.1736C32 22.0657 30.2851 20.3507 28.1772 20.3507ZM1.5 10.6875C1.36212 10.6875 1.25 10.5754 1.25 10.4375V3.1875C1.25 3.04962 1.36212 2.9375 1.5 2.9375H9.75C9.88787 2.9375 10 3.04962 10 3.1875V10.4375C10 10.5754 9.88787 10.6875 9.75 10.6875H1.5ZM4.625 24.1736C4.625 23.9009 4.668 23.6383 4.74687 23.3916H5.90188V24.6857H4.625V24.1736ZM5.88769 29.0625V28.4411L7.529 28.4385C7.58619 28.6599 7.67362 28.8692 7.78569 29.0625H5.88769ZM9.93181 29.0625C9.25094 29.0527 8.69987 28.4966 8.69987 27.8134C8.69987 27.1242 9.26062 26.5634 9.94987 26.5634C10.6391 26.5634 11.1999 27.1242 11.1999 27.8134C11.1999 28.4966 10.6488 29.0527 9.96794 29.0625H9.93181ZM16.5839 27.1884H12.3708C12.0926 26.1114 11.1127 25.3134 9.94994 25.3134C8.78719 25.3134 7.80725 26.1114 7.52906 27.1885L4.625 27.1931V25.9357H6.52688C6.872 25.9357 7.15188 25.6559 7.15188 25.3107V22.7666C7.15188 22.4214 6.872 22.1416 6.52688 22.1416H5.62256C6.05819 21.8031 6.60463 21.6008 7.19775 21.6008H8.47888H16.5839V27.1884ZM16.5839 20.3508H12.9047L11.1369 20.3509H9.42319L11.2706 15.9993C11.5743 15.2838 12.2727 14.8215 13.0501 14.8215H16.5839V20.3508ZM30.4401 22.9502H28.7615L28.3318 21.6058C29.2426 21.6601 30.0274 22.1899 30.4401 22.9502ZM17.8339 14.8214H21.2148C21.5072 14.8128 22.1869 14.8841 22.5661 15.2378C22.8152 15.4347 23.0173 15.6936 23.1471 15.9991L24.9944 20.3507H17.8339V14.8214ZM26.3044 29.0625C25.6236 29.0527 25.0725 28.4966 25.0725 27.8134C25.0725 27.1242 25.6332 26.5634 26.3225 26.5634C27.0117 26.5634 27.5725 27.1242 27.5725 27.8134C27.5725 28.4966 27.0214 29.0527 26.3406 29.0625H26.3044ZM30.75 27.1929L28.7436 27.1891C28.4656 26.1117 27.4854 25.3134 26.3225 25.3134C25.1597 25.3134 24.1799 26.1114 23.9016 27.1884H17.8339V21.6008H25.9388H27.0178L27.7098 23.7656C27.7926 24.0245 28.0333 24.2003 28.3051 24.2003H30.75V27.1929Z" fill="black"/>
<path d="M6.125 4.04163H4.875C4.52988 4.04163 4.25 4.32144 4.25 4.66663V5.91663V7.16663V8.95831C4.25 9.3035 4.52988 9.58331 4.875 9.58331C5.22012 9.58331 5.5 9.3035 5.5 8.95831V7.79163H6.125C7.15887 7.79163 8 6.9505 8 5.91663C8 4.88275 7.15887 4.04163 6.125 4.04163ZM6.125 6.54169H5.5V5.91669V5.29169H6.125C6.46962 5.29169 6.75 5.57206 6.75 5.91669C6.75 6.26131 6.46962 6.54169 6.125 6.54169Z" fill="black"/>
</svg>
