<svg width="32" height="32" viewBox="0 0 32 32" fill="none" xmlns="http://www.w3.org/2000/svg">
<path d="M6.4998 13.5C3.8998 10.9 3.8998 6.79995 6.4998 4.19995L17.5998 15.3L21.2998 19L26.9998 24.7C27.9998 25.7 27.9998 27.2 26.9998 28.2C25.9998 29.2 24.1998 29.2 23.2998 28L19.1998 22.9C18.1998 21.6 16.3998 21.1999 14.7998 21.7999L6.4998 13.5Z" stroke="black" stroke-width="2" stroke-miterlimit="10" stroke-linecap="round" stroke-linejoin="round"/>
<path d="M21.2998 12.1L26.6998 6.69995" stroke="black" stroke-width="2" stroke-miterlimit="10" stroke-linecap="round" stroke-linejoin="round"/>
<path d="M19.1001 16.8C19.5001 16.7 19.8001 16.7 20.2001 16.6C21.5001 16.5 23.0001 15.8 24.5001 14.3L29.4001 9.40002" stroke="black" stroke-width="2" stroke-miterlimit="10" stroke-linecap="round" stroke-linejoin="round"/>
<path d="M12.3002 19.3L5.3002 25C4.2002 25.8 4.1002 27.4 5.1002 28.3C6.1002 29.3 7.6002 29.1 8.4002 28.1L14.1002 21" stroke="black" stroke-width="2" stroke-miterlimit="10" stroke-linecap="round" stroke-linejoin="round"/>
<path d="M24 4L19 8.9C17.5 10.4 16.7 11.9 16.7 13.2C16.7 13.6 16.6 13.9 16.5 14.3" stroke="black" stroke-width="2" stroke-miterlimit="10" stroke-linecap="round" stroke-linejoin="round"/>
</svg>
