<svg width="32" height="32" viewBox="0 0 32 32" fill="none" xmlns="http://www.w3.org/2000/svg">
<path d="M29 7L26.5 25.3C26.4 26.3 25.5 27 24.5 27H7.5C6.5 27 5.7 26.3 5.5 25.3L3 7" stroke="black" stroke-width="2" stroke-miterlimit="10" stroke-linecap="round" stroke-linejoin="round"/>
<path d="M27.7 16.3C26.8 15.6 25.4 15.7 24.6 16.5C23.7 17.4 22.1 17.4 21.2 16.5C20.3 15.6 18.7 15.6 17.8 16.5C16.9 17.4 15.3 17.4 14.4 16.5C13.5 15.6 11.9 15.6 11 16.5C10.1 17.4 8.5 17.4 7.6 16.5C6.7 15.7 5.4 15.6 4.5 16.3" stroke="black" stroke-width="2" stroke-miterlimit="10" stroke-linecap="round" stroke-linejoin="round"/>
</svg>
