<svg width="32" height="32" viewBox="0 0 32 32" fill="none" xmlns="http://www.w3.org/2000/svg">
<path d="M16 20C14.1 20 12.5 21.6 12.5 23.5C12.5 25.4 14.1 27 16 27C17.9 27 19.5 25.4 19.5 23.5C19.5 21.6 17.9 20 16 20Z" fill="black"/>
<path d="M16 15C13.6 15 11.3 16 9.69995 17.8C9.29995 18.2 9.39995 18.8 9.79995 19.2C10.2 19.6 10.8 19.5 11.2 19.1C12.4 17.7 14.2 17 16 17C17.8 17 19.6 17.8 20.8 19.1C21 19.3 21.3 19.4 21.5 19.4C21.7 19.4 22 19.3 22.2 19.1C22.6 18.7 22.6 18.1 22.3 17.7C20.7 16 18.4 15 16 15Z" fill="black"/>
<path d="M15.9999 10C12.2999 10 8.7999 11.5 6.1999 14.2C5.7999 14.6 5.7999 15.2 6.1999 15.6C6.5999 16 7.1999 16 7.5999 15.6C9.7999 13.3 12.7999 12 15.9999 12C19.1999 12 22.1999 13.3 24.3999 15.6C24.5999 15.8 24.8999 15.9 25.0999 15.9C25.2999 15.9 25.5999 15.8 25.7999 15.6C26.1999 15.2 26.1999 14.6 25.7999 14.2C23.1999 11.5 19.6999 10 15.9999 10Z" fill="black"/>
<path d="M29.2999 10.7C25.7999 7 21.0999 5 15.9999 5C10.8999 5 6.1999 7 2.6999 10.7C2.2999 11.1 2.2999 11.7 2.6999 12.1C3.0999 12.5 3.6999 12.5 4.0999 12.1C7.1999 8.8 11.4999 7 15.9999 7C20.4999 7 24.7999 8.8 27.8999 12.1C28.0999 12.3 28.3999 12.4 28.5999 12.4C28.7999 12.4 29.0999 12.3 29.2999 12.1C29.6999 11.7 29.6999 11.1 29.2999 10.7Z" fill="black"/>
</svg>
